<svg width="339" height="422" viewBox="0 0 339 422" fill="none" xmlns="http://www.w3.org/2000/svg">
<path d="M124.473 413.526C91.2841 411.039 63.4011 387.032 54.4074 353.646C43.195 312.106 45.1608 266.606 60.8628 226.645C81.9277 172.986 127.288 130.342 180.658 114.005C225.131 100.395 280.229 108.338 306.504 148.137C323.642 174.101 325.112 207.611 325.236 239.127C325.369 269.256 324.758 299.863 316.452 328.763C308.145 357.663 291.079 384.99 265.452 398.964C242.398 411.542 215.259 412.12 189.242 412.422C166.459 412.685 144.908 415.057 124.473 413.526Z" fill="#36D6AD"/>
<path d="M87.2907 166.796C98.9152 148.405 110.859 138.798 128.951 127.403C136.41 122.703 145.413 116.771 144.998 107.7C144.641 99.861 136.968 94.4896 129.604 92.8077C113.051 89.0367 95.436 97.791 84.8886 111.577C74.3413 125.362 69.9661 143.34 69.0605 160.931C68.8031 165.785 69.3846 171.721 73.6169 173.801C78.6022 176.249 83.8592 171.261 87.2907 166.776" fill="#36D6AD"/>
<path d="M312.694 357.465C313.219 356.512 313.676 355.523 314.063 354.507C316.392 348.505 318.711 346.835 321.044 339.968C321.351 338.889 321.817 337.861 322.428 336.919C324.714 333.733 329.772 333.785 333.041 335.968C339.349 340.177 339.798 350.065 335.26 356.133C330.416 362.601 321.607 365.117 313.591 364.789C313.188 364.776 312.799 364.638 312.478 364.395C312.157 364.153 311.919 363.817 311.797 363.434C311.095 361.108 311.72 359.22 312.694 357.465Z" fill="#36D6AD"/>
<path d="M329.738 220.084C327.684 233.804 319.983 246.77 308.345 254.351C304.874 256.604 300.767 258.843 299.707 262.858C299.027 265.402 299.778 268.109 300.468 270.629C311.42 311.353 309.235 354.516 294.226 393.914C293.222 396.511 289.324 404.326 289.324 404.326C289.324 404.326 229.139 416.738 210.884 416.933L211.692 410.995L212.595 404.311C213.979 394.019 215.619 382.204 217.43 369.515C228.126 294.365 244.461 188.438 245.512 185.082C248.702 174.837 255.666 204.249 255.947 214.981C257.889 212.407 260.346 210.27 263.16 208.708C265.974 207.146 269.083 206.193 272.286 205.91C269.833 194.482 270.313 185.932 273.655 175.129C273.708 174.949 273.813 174.789 273.956 174.669C274.1 174.548 274.275 174.473 274.461 174.452C274.646 174.431 274.834 174.466 275 174.551C275.166 174.637 275.304 174.77 275.395 174.933C281.913 186.252 282.683 196.143 286.562 209.667C287.213 211.925 286.99 214.919 289.186 215.725C290.527 216.203 292.005 215.616 293.308 215.038L316.602 204.727C320.542 202.989 324.485 201.238 328.43 199.475C330.379 206.163 330.826 213.202 329.738 220.084Z" fill="#FFF3DB"/>
<path d="M219.569 382.217C219.569 382.217 207.919 296.913 171.179 267.968C170.698 267.602 171.983 267.968 172.021 268.54C172.921 281.448 177.796 380.321 211.783 411.142L219.569 382.217Z" fill="#FFF3DB"/>
<path d="M329.745 220.048C323.222 216.485 318.922 209.722 316.565 204.943C320.511 203.235 324.46 201.514 328.412 199.78C330.373 206.356 330.828 213.278 329.745 220.048Z" fill="#1A2B60"/>
<path d="M268.027 234.885C269.03 237.452 269.048 239.857 268.069 240.258C267.09 240.659 265.485 238.898 264.487 236.336C263.489 233.773 263.466 231.363 264.445 230.962C265.425 230.561 267.029 232.318 268.027 234.885Z" fill="#1A2B60"/>
<path d="M281.784 228.372C282.782 230.936 282.801 233.342 281.821 233.744C280.842 234.145 279.238 232.387 278.24 229.818C277.242 227.249 277.219 224.843 278.198 224.447C279.177 224.05 280.782 225.803 281.784 228.372Z" fill="#1A2B60"/>
<path d="M304.983 253.345C304.983 253.345 291.492 268.731 279.648 254.638" stroke="#1A2B60" stroke-miterlimit="10" stroke-linecap="round"/>
<path d="M69.6715 409.938C69.6715 409.938 59.1806 300.739 95.9371 221.496L106.857 250.264C112.421 248.63 118.336 248.63 123.9 250.264L135.25 221.496C135.25 221.496 183.246 322.135 174.304 422L69.6715 409.938Z" fill="white"/>
<path d="M105.926 265.65C105.926 268.851 104.954 271.441 103.755 271.441C102.555 271.441 101.583 268.851 101.583 265.65C101.583 262.449 102.555 259.859 103.755 259.859C104.954 259.859 105.926 262.435 105.926 265.65Z" fill="#1A2B60"/>
<path d="M119.679 265.65C119.679 268.851 118.869 271.441 117.869 271.441C116.869 271.441 116.06 268.851 116.06 265.65C116.06 262.449 116.869 259.859 117.869 259.859C118.869 259.859 119.679 262.435 119.679 265.65Z" fill="#1A2B60"/>
<path d="M107.373 286.641L71.1807 262.03" stroke="#1A2B60" stroke-width="0.5" stroke-miterlimit="10" stroke-linecap="round"/>
<path d="M107.374 286.641L63.9434 298.222" stroke="#1A2B60" stroke-width="0.5" stroke-miterlimit="10" stroke-linecap="round"/>
<path d="M107.372 286.641L72.6279 281.574" stroke="#1A2B60" stroke-width="0.5" stroke-miterlimit="10" stroke-linecap="round"/>
<path d="M112.44 287.364L159.49 266.373" stroke="#1A2B60" stroke-width="0.5" stroke-miterlimit="10" stroke-linecap="round"/>
<path d="M112.44 287.365L156.595 302.566" stroke="#1A2B60" stroke-width="0.5" stroke-miterlimit="10" stroke-linecap="round"/>
<path d="M112.44 287.366L150.804 283.022" stroke="#1A2B60" stroke-width="0.5" stroke-miterlimit="10" stroke-linecap="round"/>
<path d="M137.322 350.594C153.668 353.943 171.411 350.163 184.866 340.216C191.522 335.288 197.227 328.958 200.95 321.485C204.596 314.049 206.508 305.875 206.541 297.584C206.574 289.293 204.727 281.104 201.14 273.639C199.329 269.942 197.043 266.499 194.341 263.4C191.275 259.884 187.614 256.951 183.844 254.238C176.327 248.827 167.607 244.128 162.107 236.573C159.53 233.037 157.671 229.315 157.005 224.985C156.452 220.953 157.414 216.859 159.701 213.502C164.55 206.144 173.431 202.469 180.378 197.134C184.067 194.297 187.557 190.914 189.535 186.637C191.403 182.58 192.24 177.915 191.07 173.532C190.498 171.444 189.461 169.515 188.037 167.891C187.2 166.934 185.536 167.025 184.676 167.891C184.241 168.346 183.999 168.952 183.999 169.582C183.999 170.213 184.241 170.819 184.676 171.274C184.937 171.557 185.167 171.868 185.36 172.202C185.623 172.622 185.856 173.06 186.059 173.513C185.926 173.211 186.092 173.585 186.107 173.628C186.192 173.857 186.273 174.106 186.349 174.326C186.515 174.881 186.649 175.445 186.749 176.015C186.886 176.786 186.749 175.594 186.791 176.374C186.791 176.542 186.82 176.709 186.829 176.853C186.855 177.359 186.855 177.867 186.829 178.374C186.814 179.281 186.689 180.182 186.459 181.058C185.508 185.039 183.254 188.264 180.145 191.106C173.612 197.11 164.931 200.526 158.721 207.105C155.612 210.402 153.13 214.473 152.398 219.019C151.736 223.526 152.364 228.13 154.21 232.291C156.044 236.497 158.636 240.325 161.855 243.583C165.183 247.037 169.143 249.879 173.084 252.592C177.026 255.305 180.939 257.778 184.609 260.726C186.371 262.13 188.042 263.646 189.611 265.266C190.245 265.93 190.858 266.614 191.451 267.319C192.178 268.18 192.482 268.577 193.072 269.395C194.234 271.013 195.288 272.705 196.229 274.462C197.075 276.038 197.824 277.665 198.473 279.333C199.881 283.004 200.854 286.829 201.373 290.73C201.325 290.376 201.373 290.792 201.373 290.844C201.402 291.093 201.435 291.323 201.463 291.596C201.516 292.074 201.563 292.596 201.601 293.098C201.684 294.103 201.734 295.111 201.753 296.122C201.8 298.057 201.74 299.993 201.573 301.921C201.53 302.399 201.478 302.925 201.421 303.428C201.392 303.677 201.363 303.906 201.33 304.179C201.382 303.796 201.306 304.327 201.297 304.418C201.145 305.458 200.961 306.492 200.745 307.519C200.353 309.41 199.855 311.277 199.253 313.112C198.963 313.992 198.649 314.858 198.302 315.719C197.955 316.581 197.717 317.155 197.246 318.145C194.754 323.433 191.287 328.197 187.029 332.183C184.217 334.87 181.101 337.215 177.744 339.168C174.422 341.169 170.894 342.801 167.222 344.034C159.782 346.592 151.887 347.529 144.059 346.785C142.226 346.621 140.405 346.346 138.606 345.962C137.998 345.809 137.356 345.897 136.811 346.208C136.267 346.519 135.862 347.029 135.682 347.632C135.358 348.814 136.076 350.316 137.341 350.575L137.322 350.594Z" fill="white"/>
<path d="M229.703 99.1883C229.703 99.1883 313.987 95.7785 328.146 175.17" stroke="#36D6AD" stroke-width="2" stroke-miterlimit="10" stroke-linecap="round"/>
<path d="M166.031 47.7736C160.907 46.4586 156.157 43.9623 152.157 40.4822C148.158 37.002 145.019 32.6336 142.989 27.7226C141.71 24.5592 140.917 21.0502 141.715 17.7331C142.512 14.4161 145.247 11.4064 148.631 11.1663C151.233 10.9791 153.739 12.4192 155.477 14.3729C157.214 16.3267 158.341 18.7557 159.396 21.1414C157.677 16.8211 155.935 12.1888 156.794 7.60929C157.654 3.02978 162.279 -1.1513 166.69 0.288798C170.509 1.53208 172.117 5.97718 172.972 9.88944C175.726 22.5767 175.64 36.5072 169.22 47.7688" fill="#FC7071"/>
<path d="M205.023 52.3424C202.475 49.6242 200.601 46.3553 199.549 42.7946C198.497 39.234 198.297 35.4796 198.964 31.8289C199.408 29.4873 200.273 27.1314 202.013 25.489C203.753 23.8466 206.531 23.1235 208.633 24.2679C210.252 25.149 211.194 26.9447 211.48 28.7499C211.765 30.5551 211.48 32.3987 211.233 34.2039C211.861 31.0148 212.586 27.6438 214.848 25.2831C217.109 22.9224 221.449 22.2377 223.546 24.7564C225.334 26.9303 224.605 30.1529 223.614 32.7818C220.41 41.2668 215.051 49.4023 206.932 53.5635" fill="#FCF0E3"/>
<path d="M190.168 89.179C187.893 90.44 185.367 91.1318 182.791 91.1996C180.214 91.2673 177.658 90.7092 175.325 89.5694C173.835 88.8272 172.4 87.791 171.623 86.2777C170.846 84.7644 170.827 82.7114 171.97 81.4583C172.437 81.0073 172.994 80.6711 173.602 80.4743C174.21 80.2774 174.852 80.225 175.482 80.3209C176.739 80.522 177.959 80.9218 179.1 81.5066C177.074 80.4752 174.936 79.3475 173.752 77.3426C172.567 75.3377 172.868 72.2002 174.927 71.2315C176.704 70.393 178.74 71.4966 180.327 72.6774C185.458 76.4702 189.979 81.6993 191.339 88.0995" fill="#36D6AD"/>
<path d="M41.5049 258.492C36.0221 266.698 15.5069 328.928 62.2469 392.647" stroke="#36D6AD" stroke-width="2" stroke-miterlimit="10" stroke-linecap="round"/>
</svg>
