<svg width="18" height="18" viewBox="0 0 18 18" fill="none" xmlns="http://www.w3.org/2000/svg">
<path d="M5.04176 8.0325C5.28656 8.0325 5.49176 7.94625 5.65736 7.77375C5.82296 7.60125 5.90576 7.3875 5.90576 7.1325C5.90576 6.8775 5.82296 6.66375 5.65736 6.49125C5.49176 6.31875 5.28656 6.2325 5.04176 6.2325C4.79696 6.2325 4.59176 6.31875 4.42616 6.49125C4.26056 6.66375 4.17776 6.8775 4.17776 7.1325C4.17776 7.3875 4.26056 7.60125 4.42616 7.77375C4.59176 7.94625 4.79696 8.0325 5.04176 8.0325ZM8.86496 8.0325C9.10976 8.0325 9.31496 7.94625 9.48056 7.77375C9.64616 7.60125 9.72896 7.3875 9.72896 7.1325C9.72896 6.8775 9.64616 6.66375 9.48056 6.49125C9.31496 6.31875 9.10976 6.2325 8.86496 6.2325C8.62016 6.2325 8.41496 6.31875 8.24936 6.49125C8.08376 6.66375 8.00096 6.8775 8.00096 7.1325C8.00096 7.3875 8.08376 7.60125 8.24936 7.77375C8.41496 7.94625 8.62016 8.0325 8.86496 8.0325ZM12.537 8.0325C12.7818 8.0325 12.987 7.94625 13.1526 7.77375C13.3182 7.60125 13.401 7.3875 13.401 7.1325C13.401 6.8775 13.3182 6.66375 13.1526 6.49125C12.987 6.31875 12.7818 6.2325 12.537 6.2325C12.2922 6.2325 12.087 6.31875 11.9214 6.49125C11.7558 6.66375 11.673 6.8775 11.673 7.1325C11.673 7.3875 11.7558 7.60125 11.9214 7.77375C12.087 7.94625 12.2922 8.0325 12.537 8.0325ZM0.160156 18V1.35C0.160156 1.005 0.289756 0.69375 0.548956 0.41625C0.808156 0.13875 1.11056 0 1.45616 0H16.1442C16.4754 0 16.7742 0.13875 17.0406 0.41625C17.307 0.69375 17.4402 1.005 17.4402 1.35V13.05C17.4402 13.395 17.307 13.7063 17.0406 13.9838C16.7742 14.2612 16.4754 14.4 16.1442 14.4H3.61616L0.160156 18ZM1.45616 14.7375L3.07616 13.05H16.1442V1.35H1.45616V14.7375ZM1.45616 1.35V13.05V14.7375V1.35Z" fill="#36D6AD"/>
</svg>
